<svg xmlns="http://www.w3.org/2000/svg" viewBox="0 0 500 500"><g id="freepik--Device--inject-35"><path d="M325.79,62.62H174.19a15.48,15.48,0,0,0-15.33,15.62V390.32a15.49,15.49,0,0,0,15.33,15.62h151.6a15.5,15.5,0,0,0,15.35-15.62V78.24A15.49,15.49,0,0,0,325.79,62.62Zm5.76,318.05c0,8.22-6.15,14.86-13.73,14.86H182.19c-7.6,0-13.75-6.64-13.75-14.86V90.07c0-16.73,6.15-17.55,13.75-17.55h27.17c1.57,0,2.86,1.8,2.86,4v1c0,5.21,2.86,5.23,6.36,5.23h62.83c3.53,0,6.36,0,6.36-5.23v-1c0-2.22,1.27-4,2.87-4h27.18c7.58,0,13.73,2.23,13.73,17.55Z" style="fill:#263238"></path><path d="M258.56,76.22H241.43a1.05,1.05,0,0,1-1.06-1.06h0a1.06,1.06,0,0,1,1.06-1.06h17.13a1.06,1.06,0,0,1,1.06,1.06h0A1.05,1.05,0,0,1,258.56,76.22Z" style="fill:#fff"></path><path d="M331.55,90.07v290.6c0,8.22-6.15,14.86-13.73,14.86H182.19c-7.6,0-13.75-6.64-13.75-14.86V90.07c0-16.73,6.15-17.55,13.75-17.55h27.17c1.57,0,2.86,1.8,2.86,4v1c0,5.21,2.86,5.23,6.36,5.23h62.83c3.53,0,6.36,0,6.36-5.23v-1c0-2.22,1.27-4,2.87-4h27.18C325.4,72.52,331.55,74.75,331.55,90.07Z" style="fill:#fff"></path><g id="freepik--u5Zjqx--inject-35"><path d="M204.67,79.05l-.26.26-.15.15a3.56,3.56,0,0,0-2.53-1,3.52,3.52,0,0,0-2.53,1l-.15-.14-.25-.26h0l.33-.3a3.56,3.56,0,0,1,.77-.48,4,4,0,0,1,1-.35c.17,0,.34,0,.51-.06h.45l.34,0a4.45,4.45,0,0,1,.94.23,4.51,4.51,0,0,1,.63.29,6.42,6.42,0,0,1,.6.42l.28.25Z" style="fill:#a6a6a6"></path><path d="M200,80.29l-.42-.42A3,3,0,0,1,201.3,79a2.93,2.93,0,0,1,2.54.84l-.42.41a2.39,2.39,0,0,0-3.39,0Z" style="fill:#a6a6a6"></path><path d="M203,80.7l-.41.41a1.23,1.23,0,0,0-1.74,0l-.41-.41A1.8,1.8,0,0,1,203,80.7Z" style="fill:#a6a6a6"></path><path d="M202.1,81.49a.38.38,0,0,1-.75,0,.38.38,0,1,1,.75,0Z" style="fill:#a6a6a6"></path></g><circle cx="180.15" cy="79.84" r="1.08" style="fill:#a6a6a6"></circle><path d="M182.48,79.84a1.08,1.08,0,1,1,1.08,1.08A1.08,1.08,0,0,1,182.48,79.84Z" style="fill:#a6a6a6"></path><circle cx="186.96" cy="79.84" r="1.08" style="fill:#a6a6a6"></circle><path d="M189.29,79.84a1.08,1.08,0,1,1,1.08,1.08A1.08,1.08,0,0,1,189.29,79.84Z" style="fill:#a6a6a6"></path><path d="M192.69,79.84a1.08,1.08,0,1,1,2.16,0,1.08,1.08,0,1,1-2.16,0Z" style="fill:#a6a6a6"></path><rect x="310.74" y="78.35" width="8.35" height="3.63" style="fill:#a6a6a6"></rect><path d="M319.34,82.23h-8.85V78.1h8.85Zm-8.35-.5h7.85V78.6H311Z" style="fill:#fff"></path><rect x="311.25" y="78.82" width="5.67" height="2.69" style="fill:#a6a6a6"></rect><rect x="319.32" y="79.07" width="0.78" height="2.18" style="fill:#a6a6a6"></rect><path d="M284.12,386.54H215.87a1.55,1.55,0,0,0,0,3.09h68.25a1.55,1.55,0,1,0,0-3.09Z" style="fill:#a6a6a6"></path><circle cx="250" cy="216.05" r="15.33" transform="translate(-79.55 240.05) rotate(-45)" style="fill:#455a64"></circle><path d="M245.74,208.39a1.47,1.47,0,1,0,1.48,1.47A1.47,1.47,0,0,0,245.74,208.39Z" style="fill:#fff"></path><path d="M250,208.39a1.47,1.47,0,1,0,1.47,1.47A1.47,1.47,0,0,0,250,208.39Z" style="fill:#fff"></path><path d="M254.25,211.33a1.47,1.47,0,1,0-1.48-1.47A1.47,1.47,0,0,0,254.25,211.33Z" style="fill:#fff"></path><path d="M245.74,212.51a1.48,1.48,0,1,0,1.48,1.48A1.47,1.47,0,0,0,245.74,212.51Z" style="fill:#fff"></path><path d="M250,212.51a1.48,1.48,0,1,0,1.47,1.48A1.48,1.48,0,0,0,250,212.51Z" style="fill:#fff"></path><path d="M254.25,212.51a1.48,1.48,0,1,0,1.47,1.48A1.48,1.48,0,0,0,254.25,212.51Z" style="fill:#fff"></path><path d="M245.74,216.64a1.48,1.48,0,1,0,1.48,1.48A1.47,1.47,0,0,0,245.74,216.64Z" style="fill:#fff"></path><path d="M250,216.64a1.48,1.48,0,1,0,1.47,1.48A1.48,1.48,0,0,0,250,216.64Z" style="fill:#fff"></path><path d="M254.25,216.64a1.48,1.48,0,1,0,1.47,1.48A1.48,1.48,0,0,0,254.25,216.64Z" style="fill:#fff"></path><path d="M250,220.77a1.48,1.48,0,1,0,1.47,1.47A1.47,1.47,0,0,0,250,220.77Z" style="fill:#fff"></path><circle cx="293.39" cy="260.68" r="15.33" style="fill:#455a64"></circle><path d="M296.68,256.3a3.29,3.29,0,1,1-3.29-3.29A3.29,3.29,0,0,1,296.68,256.3Z" style="fill:#fff"></path><path d="M299.08,265.38v1.36a11,11,0,0,1-3.12,1.31,10.82,10.82,0,0,1-8.26-1.31v-1.36a5.69,5.69,0,0,1,11.38,0Z" style="fill:#fff"></path><circle cx="206.6" cy="216.05" r="15.33" transform="translate(-92.26 209.37) rotate(-45)" style="fill:#455a64"></circle><path d="M206.61,224.62a.35.35,0,0,1-.35-.35v-4.08a.35.35,0,0,1,.7,0v4.08A.35.35,0,0,1,206.61,224.62Z" style="fill:#fff"></path><path d="M208.84,224.62h-4.47a.35.35,0,0,1,0-.7h4.47a.35.35,0,0,1,0,.7Z" style="fill:#fff"></path><path d="M209.48,210.36v5.93a2.88,2.88,0,1,1-5.75,0v-5.93a2.87,2.87,0,0,1,5.74-.14A.61.61,0,0,1,209.48,210.36Z" style="fill:#fff"></path><path d="M206.6,220.53a4.16,4.16,0,0,1-4.17-4.17v-2.5a.35.35,0,1,1,.69,0v2.5a3.49,3.49,0,0,0,3.64,3.47,3.57,3.57,0,0,0,3.32-3.59v-2.38a.35.35,0,1,1,.7,0v2.38a4.23,4.23,0,0,1-4,4.29Z" style="fill:#fff"></path><circle cx="250" cy="260.68" r="15.33" style="fill:#455a64"></circle><path d="M258.93,258.74v3.9a1.08,1.08,0,0,1-1.34,1l-1.74-.44L255,263v-4.65l2.32-.59.31-.08A1.08,1.08,0,0,1,258.93,258.74Z" style="fill:#fff"></path><rect x="243.38" y="255.9" width="10.68" height="9.57" rx="1.97" style="fill:#fff"></rect><circle cx="206.6" cy="260.68" r="15.33" style="fill:#455a64"></circle><path d="M212.45,259.75h-4.92v-4.91a.93.93,0,0,0-1.86,0v4.91h-4.91a.94.94,0,1,0,0,1.87h4.91v4.91a.93.93,0,0,0,1.86,0v-4.91h4.92a.94.94,0,0,0,0-1.87Z" style="fill:#fff"></path><circle cx="293.39" cy="216.05" r="15.33" transform="translate(-66.84 270.74) rotate(-45)" style="fill:#455a64"></circle><path d="M301,215.39c0-.35-.08-.71-.14-1.06a8.11,8.11,0,0,0-.72-2.13,8.25,8.25,0,0,0-1-1.61l-.61-.69,0,0h0v0l-.54.54-.31.29a7.47,7.47,0,0,1,0,10.59l.31.31.55.55h0c.18-.19.36-.38.53-.58a8.6,8.6,0,0,0,.88-1.26,8.84,8.84,0,0,0,.62-1.32,8.14,8.14,0,0,0,.46-1.95c0-.24,0-.49.06-.73C301,216.3,301,215.51,301,215.39Z" style="fill:#fff"></path><path d="M298.48,215.12a6.15,6.15,0,0,0-1.77-3.53l-.86.87a5,5,0,0,1,1.47,3.55,4.93,4.93,0,0,1-1.47,3.55l.87.87A6.2,6.2,0,0,0,298.48,215.12Z" style="fill:#fff"></path><path d="M295,213.33l-.86.86a2.53,2.53,0,0,1,.76,1.82,2.56,2.56,0,0,1-.75,1.82l.86.86A3.76,3.76,0,0,0,295,213.33Z" style="fill:#fff"></path><rect x="285.8" y="213.55" width="2.54" height="4.92" style="fill:#fff"></rect><polygon points="288.34 213.55 293.02 211.58 293.02 220.44 288.34 218.47 288.34 213.55" style="fill:#fff"></polygon><circle cx="250" cy="334.64" r="18.09" style="fill:#2196F3"></circle><path d="M260.27,334.75a8.47,8.47,0,0,0-.28-.85,6.48,6.48,0,0,0-.49-.79l-.66-.66c-.28-.2-.54-.41-.83-.59a9.63,9.63,0,0,0-3.55-1.38,22.8,22.8,0,0,0-8.94,0,9.84,9.84,0,0,0-3.59,1.39c-.28.19-.54.39-.8.58l-.69.68-.31.47a2.28,2.28,0,0,0-.39,1.19h5.82a.19.19,0,0,0,.19-.13,2,2,0,0,1,1.67-1.07,39.45,39.45,0,0,1,5.1,0,1.92,1.92,0,0,1,1.67,1.06.24.24,0,0,0,.23.14h5.65Z" style="fill:#fff"></path><path d="M239.73,336v2.13a.64.64,0,0,0,.72.72h4.32a.65.65,0,0,0,.73-.74v-1.69c0-.15,0-.3,0-.43Z" style="fill:#fff"></path><path d="M260.22,335.93h-5.71c0,.72,0,1.44,0,2.17a.63.63,0,0,0,.7.68h4.36a.64.64,0,0,0,.71-.7c0-.68,0-1.35,0-2Z" style="fill:#fff"></path><path d="M229.71,173.65a4.27,4.27,0,0,1,4.27-4.19,4.39,4.39,0,0,1,2.7.91.67.67,0,0,1-.82,1.06,2.89,2.89,0,0,0-1.88-.64,3,3,0,0,0-2.09.84,2.84,2.84,0,0,0,0,4.05,3.07,3.07,0,0,0,2.09.84,2.91,2.91,0,0,0,1.88-.64.7.7,0,0,1,.93.13.68.68,0,0,1-.11.93,4.39,4.39,0,0,1-2.7.91A4.26,4.26,0,0,1,229.71,173.65Z" style="fill:#263238"></path><path d="M240.22,177.21a.64.64,0,0,1-.65.64.66.66,0,0,1-.62-.48.88.88,0,0,1,0-.16v-6.88a.65.65,0,0,1,1.29,0v2a2.62,2.62,0,0,1,1.25-.34,2.55,2.55,0,0,1,2.54,2.55v2.64a.65.65,0,0,1-1.29,0v-2.64a1.25,1.25,0,1,0-2.5,0Z" style="fill:#263238"></path><path d="M251.46,175v2.28a.62.62,0,0,1-.61.62.63.63,0,0,1-.61-.5,2.68,2.68,0,0,1-1.55.5,2.72,2.72,0,0,1-2-.85,3,3,0,0,1-.79-2.05,2.92,2.92,0,0,1,.79-2,2.64,2.64,0,0,1,3.53-.37.63.63,0,0,1,.61-.51.62.62,0,0,1,.61.63Zm-1.23,0a1.71,1.71,0,0,0-.46-1.2,1.41,1.41,0,0,0-1.08-.48,1.38,1.38,0,0,0-1.08.48,1.71,1.71,0,0,0-.45,1.2,1.78,1.78,0,0,0,.45,1.2,1.46,1.46,0,0,0,1.08.45,1.5,1.5,0,0,0,1.08-.45A1.79,1.79,0,0,0,250.23,175Z" style="fill:#263238"></path><path d="M257.34,172.64a.62.62,0,0,1-.62.62,1.12,1.12,0,0,0-.7.22,1.8,1.8,0,0,0-.54.56,3.41,3.41,0,0,0-.47,1v2.21a.63.63,0,0,1-.64.62.62.62,0,0,1-.62-.62v-4.59a.61.61,0,0,1,.62-.61.63.63,0,0,1,.64.61v.08a1.73,1.73,0,0,1,.24-.23,2.57,2.57,0,0,1,1.47-.46A.61.61,0,0,1,257.34,172.64Z" style="fill:#263238"></path><path d="M259.59,169.69a.65.65,0,0,1,.65.64v6.88a.65.65,0,0,1-1.29,0v-6.88A.64.64,0,0,1,259.59,169.69Z" style="fill:#263238"></path><path d="M263,170.57a.64.64,0,0,1-.63.64.64.64,0,0,1-.63-.64v-.25a.63.63,0,1,1,1.26,0Zm0,2.1v4.55a.63.63,0,0,1-1.26,0v-4.55a.63.63,0,1,1,1.26,0Z" style="fill:#263238"></path><path d="M264.63,174.93a2.89,2.89,0,0,1,2.84-2.91,2.78,2.78,0,0,1,2.81,2.7v.06a.41.41,0,0,1,0,.11.56.56,0,0,1-.61.46H266a1.55,1.55,0,0,0,.4.77,1.82,1.82,0,0,0,1.11.53,2,2,0,0,0,1.22-.29.65.65,0,0,1,.87,0,.53.53,0,0,1,0,.76,3,3,0,0,1-2.09.77A2.9,2.9,0,0,1,264.63,174.93Zm1.27-.57h3.3a1.91,1.91,0,0,0-1.73-1.23A1.64,1.64,0,0,0,265.9,174.36Z" style="fill:#263238"></path><path d="M235.44,113a2.66,2.66,0,0,1,2.66-2.61,2.75,2.75,0,0,1,1.67.56.43.43,0,0,1,.07.58.42.42,0,0,1-.58.08,1.79,1.79,0,0,0-1.16-.39,1.92,1.92,0,0,0-1.31.52,1.76,1.76,0,0,0,0,2.52,1.92,1.92,0,0,0,1.31.52,1.79,1.79,0,0,0,1.16-.4.45.45,0,0,1,.58.08.43.43,0,0,1-.07.58,2.75,2.75,0,0,1-1.67.56A2.65,2.65,0,0,1,235.44,113Z" style="fill:#c7c7c7"></path><path d="M244.23,113.84v1.42a.38.38,0,0,1-.38.38.39.39,0,0,1-.38-.31,1.62,1.62,0,0,1-1,.31,1.68,1.68,0,0,1-1.23-.52,1.85,1.85,0,0,1-.5-1.28,1.77,1.77,0,0,1,.5-1.27,1.63,1.63,0,0,1,1.23-.55,1.7,1.7,0,0,1,1,.32.4.4,0,0,1,.38-.32.39.39,0,0,1,.38.39Zm-.77,0a1.12,1.12,0,0,0-.28-.75.93.93,0,0,0-1.35,0,1.18,1.18,0,0,0,0,1.5,1,1,0,0,0,1.35,0A1.12,1.12,0,0,0,243.46,113.84Z" style="fill:#c7c7c7"></path><path d="M246.2,110.57a.41.41,0,0,1,.4.4v4.28a.4.4,0,0,1-.8,0V111A.41.41,0,0,1,246.2,110.57Z" style="fill:#c7c7c7"></path><path d="M248,110.57a.41.41,0,0,1,.41.4v4.28a.41.41,0,0,1-.81,0V111A.41.41,0,0,1,248,110.57Z" style="fill:#c7c7c7"></path><path d="M250.15,111.12a.39.39,0,0,1-.4.4.4.4,0,0,1-.39-.4V111a.4.4,0,0,1,.39-.4.39.39,0,0,1,.4.4Zm0,1.31v2.82a.4.4,0,0,1-.79,0v-2.82a.4.4,0,1,1,.79,0Z" style="fill:#c7c7c7"></path><path d="M254.41,113.53v1.73a.38.38,0,0,1-.38.38.39.39,0,0,1-.38-.38v-1.73a.74.74,0,0,0-.75-.73.72.72,0,0,0-.73.73v1.73a.2.2,0,0,1,0,.07.4.4,0,0,1-.39.31.38.38,0,0,1-.38-.38v-2.85a.39.39,0,0,1,.38-.39.4.4,0,0,1,.36.23,1.42,1.42,0,0,1,.77-.23A1.52,1.52,0,0,1,254.41,113.53Z" style="fill:#c7c7c7"></path><path d="M259.07,113.86v1.34a1.75,1.75,0,0,1-1.74,1.74,1.61,1.61,0,0,1-.76-.18.39.39,0,0,1-.18-.52.39.39,0,0,1,.53-.18.92.92,0,0,0,.41.1,1,1,0,0,0,.95-.78,1.69,1.69,0,0,1-.95.29,1.66,1.66,0,0,1-1.23-.55,1.83,1.83,0,0,1-.51-1.27,1.91,1.91,0,0,1,.51-1.29,1.69,1.69,0,0,1,1.23-.54,1.65,1.65,0,0,1,1,.31.38.38,0,0,1,.38-.31.39.39,0,0,1,.39.39v1.44Zm-.78,0a1.11,1.11,0,0,0-.27-.74.93.93,0,0,0-.69-.31.88.88,0,0,0-.67.31,1.08,1.08,0,0,0-.29.74,1,1,0,0,0,.29.74.87.87,0,0,0,.67.3.92.92,0,0,0,.69-.3A1.08,1.08,0,0,0,258.29,113.85Z" style="fill:#c7c7c7"></path><path d="M261.06,114.62a.55.55,0,0,1,.55.54.54.54,0,0,1-.55.53.53.53,0,0,1-.53-.53A.54.54,0,0,1,261.06,114.62Z" style="fill:#c7c7c7"></path><path d="M262.73,114.62a.54.54,0,0,1,.54.54.54.54,0,0,1-1.08,0A.54.54,0,0,1,262.73,114.62Z" style="fill:#c7c7c7"></path><path d="M264.39,114.62a.55.55,0,0,1,.55.54.54.54,0,0,1-.55.53.53.53,0,0,1-.53-.53A.54.54,0,0,1,264.39,114.62Z" style="fill:#c7c7c7"></path><path d="M261.09,160.26a20.77,20.77,0,0,1-6.09,2.55,21.12,21.12,0,1,1,6.09-2.55Z" style="fill:#c7c7c7"></path><path d="M256.42,139.89a6.43,6.43,0,1,1-6.43-6.43A6.42,6.42,0,0,1,256.42,139.89Z" style="fill:#fff"></path><path d="M261.09,157.61v2.65a20.77,20.77,0,0,1-6.09,2.55,21,21,0,0,1-16.11-2.56v-2.64a11.1,11.1,0,1,1,22.2,0Z" style="fill:#fff"></path></g></svg>